<svg id="Capa_1" enable-background="new 0 0 512 512" height="512" viewBox="0 0 512 512" width="512" xmlns="http://www.w3.org/2000/svg"><g><path d="m406 358.803c-52.755 0-96.127 39.25-103.484 90h28.484l30 30h151v-15c0-57.891-48.109-105-106-105z" fill="#ff80aa"/><path d="m209.484 448.803c-7.357-50.75-50.729-90-103.484-90-57.891 0-106 47.109-106 105v15h151l30-30z" fill="#82e1d8"/><g><path d="m106 238.803v-30c8.276 0 15-6.724 15-15s-6.724-15-15-15v-30c24.814 0 45 20.186 45 45s-20.186 45-45 45z" fill="#ffbe40"/></g><g><path d="m256 238.803v-30c8.276 0 15-6.724 15-15s-6.724-15-15-15v-30c24.814 0 45 20.186 45 45s-20.186 45-45 45z" fill="#ffbe40"/></g><g><path d="m406 238.803v-30c8.276 0 15-6.724 15-15s-6.724-15-15-15v-30c24.814 0 45 20.186 45 45s-20.186 45-45 45z" fill="#ffbe40"/></g><g><path d="m106 358.803c-41.353 0-75-33.647-75-75s33.647-75 75-75 75 33.647 75 75-33.647 75-75 75z" fill="#fdc"/></g><g><path d="m256 358.803c-57.9 0-105 47.1-105 105v15h210v-15c0-57.9-47.1-105-105-105z" fill="#ffdf40"/></g><g><path d="m406 358.803c-41.353 0-75-33.647-75-75s33.647-75 75-75 75 33.647 75 75-33.647 75-75 75z" fill="#ffcabf"/></g><path d="m361 463.803v15h-105v-120c57.9 0 105 47.1 105 105z" fill="#ffbe40"/><path d="m305.395 33.197-49.395 49.395-19.395-19.395-21.21 21.211 40.605 40.606 70.605-70.606z" fill="#8ae684"/><path d="m305.395 33.197-49.395 49.395v42.422l70.605-70.606z" fill="#66cc7a"/><circle cx="256" cy="283.803" fill="#fdc" r="75"/><path d="m331 283.803c0-41.353-33.647-75-75-75v150c41.353 0 75-33.648 75-75z" fill="#ffcabf"/></g></svg>