<svg xmlns="http://www.w3.org/2000/svg" width="1367.987" height="1614.026" viewBox="0 0 1367.987 1614.026">
  <g id="Filipino_Background" data-name="Filipino Background" transform="translate(6 0.179)">
    <g id="bg" transform="translate(-2.345 83.93)">
      <path id="Path_361" data-name="Path 361" d="M1362.049-84.256,1155.924-29.6l-379.18-69.6L589.932-38.178,158.816-168.494,0-64.169v190.5H1362.049Z" transform="translate(0 1386.879)" fill="#e3c6a0"/>
      <path id="Path_358" data-name="Path 358" d="M0-45.715,206.125,8.945l379.18-69.6L847.64-8.583l374.289-58.71,140.119,41.665V363.583l-337.917-33.825L783.262,392.576,292.015,319.288,0,408.683Z" transform="translate(0 67.293)" fill="#e3c6a0"/>
      <path id="Path_359" data-name="Path 359" d="M1362.049-57.6,1155.924-2.94l-379.18-69.6L589.932-11.522,371.248-98.5,140.119-79.178,0-37.513V351.7l337.917-33.825,240.869,62.818L1070.034,307.4l292.015,89.4Z" transform="translate(0 737.966)" fill="#e3c6a0"/>
    </g>
    <g id="botrock" transform="translate(-0.345 1532.821)">
      <path id="Path_348" data-name="Path 348" d="M0,80.872H1362.049V0h-47.374l-58.826,55.807L1204.866,10.63l-52.289,45.177-58.954-35.56-74.385,15.629L976.1,21.26,884.591,55.807,814,10.63,691.119,55.807l-55.4-27.848-89.545,7.983-44.6-25.312L421.826,55.807,306.788,10.63,232.275,35.876,87.171,10.63,0,55.807Z" transform="translate(0 0)" fill="#b08957"/>
      <path id="Path_349" data-name="Path 349" d="M0,99.275l1362.049.163V48.751L1328.085,76.71l-58.917,22.714H1256.9l-9.105.015L1212.057,76.71l-19.338-6.962-34.055,29.531h-6.481l-10.877.142-49.53-22.711-72.538,7.917L977.294,59.381,930.883,84.627,857.013,89.4l-44.091-40.1L795.131,84.627l-76.721,14.7H693.32L680.6,99.273,635.717,76.71l-80.11-6.026L541.389,58.779,501,76.71,422.682,89.4H353.065L306.788,59.381l-30.3,25.246-93.6,13.425L87.171,59.381,0,99.275Z" transform="translate(0 -18.412)" fill="#d1a368"/>
      <path id="Path_350" data-name="Path 350" d="M12.791,13.506l95.881,38.93,51.671-43.73L14.566-16.09Z" transform="translate(74.189 27.254)" fill="#131313" opacity="0.27"/>
      <path id="Path_351" data-name="Path 351" d="M34.955,54.962,64.664,30.027l46.658,30.2,36.243-27.942L64.664-.335,24.6,13.112Z" transform="translate(241.962 10.948)" fill="#131313" opacity="0.27"/>
      <path id="Path_352" data-name="Path 352" d="M24.6,67.076,64.9,49.287,79.2,61.054,69.678,44.725l-44.5-25.272Z" transform="translate(476.485 -8.774)" fill="#131313" opacity="0.27"/>
      <path id="Path_353" data-name="Path 353" d="M25.553,33.325l45.02,22.3,8.686-.106h3.757l4.372-16.372-5.85-8.185L25.553,2.865Z" transform="translate(610.122 25.33)" fill="#131313" opacity="0.27"/>
      <path id="Path_354" data-name="Path 354" d="M76.295,54.281,94.054,18.976l25.2,22.948,11.695-20.13L95.092-1.221,74.567,6.65Z" transform="translate(718.885 11.867)" fill="#131313" opacity="0.27"/>
      <path id="Path_355" data-name="Path 355" d="M83.585,36.481l9.646,5.811,32.411,19.419V31.421L82.414,16.7l-7.846,8.475Z" transform="translate(893.71 4.487)" fill="#131313" opacity="0.27"/>
      <path id="Path_356" data-name="Path 356" d="M78.078,83.666l22.756,10.425L111.915,99.1h17.506L175.6,28.782,123.211,73.9,76.582,45.753Z" transform="translate(1029.371 -18.09)" fill="#131313" opacity="0.27"/>
      <path id="Path_357" data-name="Path 357" d="M141.307,91.235l31.648-12.114L206.927,51.06l.264-30.206H159.3Z" transform="translate(1155.141 -20.799)" fill="#131313" opacity="0.27"/>
    </g>
    <g id="botrock-2" data-name="botrock" transform="translate(-2.346 -0.179)">
      <path id="Path_348-2" data-name="Path 348" d="M0,0H1362.048V80.872h-47.374l-58.826-55.807-50.983,45.177-52.289-45.177-58.954,35.56L1019.237,45,976.1,59.612,884.591,25.065,814,70.242,691.118,25.065l-55.4,27.848L546.172,44.93l-44.6,25.312L421.826,25.065,306.788,70.242,232.275,45,87.171,70.242,0,25.065Z" transform="translate(0 0.154)" fill="#b08957"/>
      <path id="Path_349-2" data-name="Path 349" d="M0,48.914l1362.048-.163V99.438L1328.085,71.48l-58.917-22.714H1256.9l-9.105-.015L1212.057,71.48l-19.338,6.962L1158.664,48.91h-6.481l-10.877-.142-49.53,22.711-72.538-7.917L977.294,88.808,930.883,63.562l-73.87-4.776-44.091,40.1L795.131,63.562l-76.721-14.7H693.32l-12.716.056L635.716,71.48l-80.11,6.026L541.389,89.411,501,71.48,422.682,58.786H353.065L306.788,88.808l-30.3-25.246-93.6-13.425L87.171,88.808,0,48.914Z" transform="translate(0 -48.751)" fill="#d1a368"/>
      <path id="Path_350-2" data-name="Path 350" d="M12.791,22.84l95.881-38.93,51.671,43.73L14.566,52.436Z" transform="translate(74.189 17.427)" fill="#131313" opacity="0.27"/>
      <path id="Path_351-2" data-name="Path 351" d="M34.955,4.928,64.664,29.862l46.658-30.2,36.243,27.942-82.9,32.618L24.6,46.778Z" transform="translate(241.962 10.188)" fill="#131313" opacity="0.27"/>
      <path id="Path_352-2" data-name="Path 352" d="M24.6,19.453,64.9,37.242,79.2,25.475,69.678,41.8l-44.5,25.272Z" transform="translate(476.484 3.271)" fill="#131313" opacity="0.27"/>
      <path id="Path_353-2" data-name="Path 353" d="M25.553,25.165l45.02-22.3,8.686.106h3.757l4.372,16.372-5.85,8.185-55.985,28.1Z" transform="translate(610.122 -2.794)" fill="#131313" opacity="0.27"/>
      <path id="Path_354-2" data-name="Path 354" d="M76.295-1.221,94.054,34.084l25.2-22.948,11.695,20.13L95.092,54.282,74.567,46.41Z" transform="translate(718.885 16.098)" fill="#131313" opacity="0.27"/>
      <path id="Path_355-2" data-name="Path 355" d="M83.585,41.93l9.646-5.811L125.642,16.7V46.989L82.414,61.711l-7.846-8.475Z" transform="translate(893.71 -1.872)" fill="#131313" opacity="0.27"/>
      <path id="Path_356-2" data-name="Path 356" d="M78.078,44.213l22.756-10.425,11.082-5.006h17.506L175.6,99.1,123.211,53.976,76.582,82.125Z" transform="translate(1029.371 -28.763)" fill="#131313" opacity="0.27"/>
      <path id="Path_357-2" data-name="Path 357" d="M141.307,20.854l31.648,12.114L206.927,61.03l.264,30.206H159.3Z" transform="translate(1155.141 -10.265)" fill="#131313" opacity="0.27"/>
    </g>
    <g id="shadow" transform="translate(216.017 284.268)">
      <ellipse id="Shadow-2" data-name="Shadow" cx="66.5" cy="19.5" rx="66.5" ry="19.5" transform="translate(-0.017 187.732)" opacity="0.36"/>
      <ellipse id="Shadow-3" data-name="Shadow" cx="66.5" cy="25.5" rx="66.5" ry="25.5" transform="translate(614.983 -0.268)" opacity="0.36"/>
      <ellipse id="Shadow-4" data-name="Shadow" cx="66.5" cy="19" rx="66.5" ry="19" transform="translate(443.983 550.732)" opacity="0.36"/>
      <ellipse id="Shadow-5" data-name="Shadow" cx="67" cy="19" rx="67" ry="19" transform="translate(190.983 757.732)" opacity="0.36"/>
      <ellipse id="Shadow-6" data-name="Shadow" cx="67" cy="19" rx="67" ry="19" transform="translate(710.983 1091.732)" opacity="0.36"/>
      <ellipse id="Shadow-7" data-name="Shadow" cx="67" cy="19" rx="67" ry="19" transform="translate(937.983 776.732)" opacity="0.36"/>
    </g>
    <g id="Cactus">
      <g id="cactus-2" data-name="cactus" transform="translate(235.018 394.436)">
        <path id="Rectangle_351" data-name="Rectangle 351" d="M16,0h0a0,0,0,0,1,0,0V105a0,0,0,0,1,0,0H0a0,0,0,0,1,0,0V16A16,16,0,0,1,16,0Z" transform="translate(18.982 -0.436)" fill="#b9d52c"/>
        <path id="Rectangle_352" data-name="Rectangle 352" d="M0,0H0A16,16,0,0,1,16,16v89a0,0,0,0,1,0,0H0a0,0,0,0,1,0,0V0A0,0,0,0,1,0,0Z" transform="translate(34.982 -0.436)" fill="#8ea61a"/>
        <rect id="Rectangle_353" data-name="Rectangle 353" width="17" height="41" rx="8.5" transform="translate(-0.018 15.564)" fill="#7b9114"/>
        <rect id="Rectangle_354" data-name="Rectangle 354" width="16.098" height="26.193" rx="8.049" transform="translate(27.919 41.669) rotate(90)" fill="#7b9114"/>
      </g>
      <g id="cactus-3" data-name="cactus" transform="translate(292.022 435.748)">
        <path id="Rectangle_351-2" data-name="Rectangle 351" d="M0,0H0A10,10,0,0,1,10,10V66a0,0,0,0,1,0,0H0a0,0,0,0,1,0,0V0A0,0,0,0,1,0,0Z" transform="translate(10.978 0.252)" fill="#b9d52c"/>
        <path id="Rectangle_352-2" data-name="Rectangle 352" d="M11,0h0a0,0,0,0,1,0,0V66a0,0,0,0,1,0,0H0a0,0,0,0,1,0,0V11A11,11,0,0,1,11,0Z" transform="translate(-0.022 0.252)" fill="#8ea61a"/>
        <rect id="Rectangle_353-2" data-name="Rectangle 353" width="10" height="26" rx="5" transform="translate(22.978 10.252)" fill="#7b9114"/>
        <rect id="Rectangle_354-2" data-name="Rectangle 354" width="10.211" height="16.828" rx="5.106" transform="translate(31.962 26.434) rotate(90)" fill="#7b9114"/>
      </g>
    </g>
    <g id="car" transform="translate(816.062 855.339)">
      <rect id="Rectangle_355" data-name="Rectangle 355" width="204" height="23" rx="11.5" transform="translate(-0.062 62.661)" fill="#48b6ff"/>
      <path id="Rectangle_356" data-name="Rectangle 356" d="M19.2,0H163.8A19.2,19.2,0,0,1,183,19.2v0A12.8,12.8,0,0,1,170.2,32H12.8A12.8,12.8,0,0,1,0,19.2v0A19.2,19.2,0,0,1,19.2,0Z" transform="translate(9.938 40.661)" fill="#48b6ff"/>
      <g id="Group_14" data-name="Group 14" transform="translate(29.389 0)">
        <path id="Path_377" data-name="Path 377" d="M83.284-22.582S76.838-46.638,37.031-46.4-9.915-22.582-9.915-22.582L-24.669,25.67l122.98-.915Z" transform="translate(24.669 46.4)" fill="#48b6ff"/>
        <path id="Path_379" data-name="Path 379" d="M4.533-1.348C12-6.3,27.959-5.832,27.959-5.832V17.588H-7.49S-2.931,3.606,4.533-1.348Z" transform="translate(28.01 18.571)" fill="#352e2e"/>
        <path id="Path_380" data-name="Path 380" d="M15.935-1.348C8.471-6.3-7.49-5.832-7.49-5.832V17.588H27.959S23.4,3.605,15.935-1.348Z" transform="translate(72.477 18.571)" fill="#352e2e"/>
      </g>
      <g id="tire" transform="translate(128.01 67.312)">
        <circle id="Ellipse_100" data-name="Ellipse 100" cx="20" cy="20" r="20" transform="translate(-0.071 0.35)" fill="#444242"/>
        <ellipse id="Ellipse_101" data-name="Ellipse 101" cx="9" cy="9.5" rx="9" ry="9.5" transform="translate(9.929 11.35)" fill="#fff"/>
      </g>
      <g id="tire-2" data-name="tire" transform="translate(32.002 66.328)">
        <circle id="Ellipse_100-2" data-name="Ellipse 100" cx="20" cy="20" r="20" transform="translate(-0.064 0.334)" fill="#444242"/>
        <circle id="Ellipse_101-2" data-name="Ellipse 101" cx="9.5" cy="9.5" r="9.5" transform="translate(9.936 11.334)" fill="#fff"/>
      </g>
      <rect id="Rectangle_357" data-name="Rectangle 357" width="17" height="8" rx="4" transform="translate(96.938 46.661)" fill="#5e5252"/>
      <circle id="Ellipse_102" data-name="Ellipse 102" cx="8" cy="8" r="8" transform="translate(165.938 44.661)" fill="#a8dcec"/>
    </g>
    <g id="car-2" data-name="car" transform="translate(662.05 498.702)">
      <rect id="Rectangle_355-2" data-name="Rectangle 355" width="205" height="23" rx="11.5" transform="translate(-0.05 63.298)" fill="#ee3838"/>
      <path id="Rectangle_356-2" data-name="Rectangle 356" d="M19.8,0H162.2A19.8,19.8,0,0,1,182,19.8v0A13.2,13.2,0,0,1,168.8,33H13.2A13.2,13.2,0,0,1,0,19.8v0A19.8,19.8,0,0,1,19.8,0Z" transform="translate(11.95 39.298)" fill="#ee3838"/>
      <g id="Group_14-2" data-name="Group 14" transform="translate(52.161 0)">
        <path id="Path_377-2" data-name="Path 377" d="M-9.642-22.582S-3.2-46.638,36.611-46.4,83.557-22.582,83.557-22.582L98.311,25.67l-122.98-.915Z" transform="translate(24.669 46.4)" fill="#ee3838"/>
        <path id="Path_379-2" data-name="Path 379" d="M15.935-1.348C8.471-6.3-7.49-5.832-7.49-5.832V17.588H27.959S23.4,3.606,15.935-1.348Z" transform="translate(74.502 18.571)" fill="#352e2e"/>
        <path id="Path_380-2" data-name="Path 380" d="M4.533-1.348C12-6.3,27.959-5.832,27.959-5.832V17.588H-7.49S-2.931,3.605,4.533-1.348Z" transform="translate(30.035 18.571)" fill="#352e2e"/>
      </g>
      <g id="tire-3" data-name="tire" transform="translate(37.003 67.871)">
        <ellipse id="Ellipse_100-3" data-name="Ellipse 100" cx="19.5" cy="20" rx="19.5" ry="20" transform="translate(-0.053 0.428)" fill="#444242"/>
        <ellipse id="Ellipse_101-3" data-name="Ellipse 101" cx="9" cy="9.5" rx="9" ry="9.5" transform="translate(10.947 10.428)" fill="#fff"/>
      </g>
      <g id="tire-4" data-name="tire" transform="translate(133.01 66.887)">
        <circle id="Ellipse_100-4" data-name="Ellipse 100" cx="20" cy="20" r="20" transform="translate(-0.06 0.411)" fill="#444242"/>
        <circle id="Ellipse_101-4" data-name="Ellipse 101" cx="9.5" cy="9.5" r="9.5" transform="translate(9.94 10.411)" fill="#fff"/>
      </g>
      <rect id="Rectangle_357-2" data-name="Rectangle 357" width="16" height="7" rx="3.5" transform="translate(90.95 47.298)" fill="#5e5252"/>
      <ellipse id="Ellipse_102-2" data-name="Ellipse 102" cx="8.5" cy="7.5" rx="8.5" ry="7.5" transform="translate(21.95 45.298)" fill="#eca8a8"/>
    </g>
    <g id="car-3" data-name="car" transform="translate(1105.021 1308.718)">
      <rect id="Rectangle_355-3" data-name="Rectangle 355" width="205" height="23" rx="11.5" transform="translate(-0.021 63.282)" fill="#48b6ff"/>
      <path id="Rectangle_356-3" data-name="Rectangle 356" d="M19.2,0H163.8A19.2,19.2,0,0,1,183,19.2v0A12.8,12.8,0,0,1,170.2,32H12.8A12.8,12.8,0,0,1,0,19.2v0A19.2,19.2,0,0,1,19.2,0Z" transform="translate(11.979 40.282)" fill="#48b6ff"/>
      <g id="Group_14-3" data-name="Group 14" transform="translate(52.21 0)">
        <path id="Path_377-3" data-name="Path 377" d="M-9.642-22.582S-3.2-46.638,36.611-46.4,83.557-22.582,83.557-22.582L98.311,25.67l-122.98-.915Z" transform="translate(24.669 46.4)" fill="#48b6ff"/>
        <path id="Path_379-3" data-name="Path 379" d="M15.935-1.348C8.471-6.3-7.49-5.832-7.49-5.832V17.588H27.959S23.4,3.606,15.935-1.348Z" transform="translate(74.502 18.571)" fill="#352e2e"/>
        <path id="Path_380-3" data-name="Path 380" d="M4.533-1.348C12-6.3,27.959-5.832,27.959-5.832V17.588H-7.49S-2.931,3.605,4.533-1.348Z" transform="translate(30.035 18.571)" fill="#352e2e"/>
      </g>
      <g id="tire-5" data-name="tire" transform="translate(37.003 67.155)">
        <ellipse id="Ellipse_100-5" data-name="Ellipse 100" cx="19.5" cy="20" rx="19.5" ry="20" transform="translate(-0.024 0.127)" fill="#444242"/>
        <circle id="Ellipse_101-5" data-name="Ellipse 101" cx="9" cy="9" r="9" transform="translate(10.976 12.127)" fill="#fff"/>
      </g>
      <g id="tire-6" data-name="tire" transform="translate(133.01 66.172)">
        <ellipse id="Ellipse_100-6" data-name="Ellipse 100" cx="19.5" cy="20" rx="19.5" ry="20" transform="translate(-0.031 0.111)" fill="#444242"/>
        <circle id="Ellipse_101-6" data-name="Ellipse 101" cx="9" cy="9" r="9" transform="translate(10.969 12.111)" fill="#fff"/>
      </g>
      <rect id="Rectangle_357-3" data-name="Rectangle 357" width="16" height="8" rx="4" transform="translate(90.979 46.282)" fill="#5e5252"/>
      <ellipse id="Ellipse_102-3" data-name="Ellipse 102" cx="8.5" cy="8" rx="8.5" ry="8" transform="translate(21.979 44.282)" fill="#a8dcec"/>
    </g>
    <g id="car-4" data-name="car" transform="translate(525.04 1057.804)">
      <rect id="Rectangle_355-4" data-name="Rectangle 355" width="205" height="24" rx="12" transform="translate(-0.04 62.196)" fill="#ee3838"/>
      <path id="Rectangle_356-4" data-name="Rectangle 356" d="M18.6,0H163.4A18.6,18.6,0,0,1,182,18.6v0A12.4,12.4,0,0,1,169.6,31H12.4A12.4,12.4,0,0,1,0,18.6v0A18.6,18.6,0,0,1,18.6,0Z" transform="translate(11.96 40.196)" fill="#ee3838"/>
      <g id="Group_14-4" data-name="Group 14" transform="translate(52.114 0)">
        <path id="Path_377-4" data-name="Path 377" d="M-9.642-22.582S-3.2-46.638,36.611-46.4,83.557-22.582,83.557-22.582L98.311,25.67l-122.98-.915Z" transform="translate(24.669 46.4)" fill="#ee3838"/>
        <path id="Path_379-4" data-name="Path 379" d="M15.935-1.348C8.471-6.3-7.49-5.832-7.49-5.832V17.588H27.959S23.4,3.606,15.935-1.348Z" transform="translate(74.502 18.571)" fill="#352e2e"/>
        <path id="Path_380-4" data-name="Path 380" d="M4.533-1.348C12-6.3,27.959-5.832,27.959-5.832V17.588H-7.49S-2.931,3.605,4.533-1.348Z" transform="translate(30.035 18.571)" fill="#352e2e"/>
      </g>
      <g id="tire-7" data-name="tire" transform="translate(37.003 68.459)">
        <ellipse id="Ellipse_100-7" data-name="Ellipse 100" cx="19.5" cy="20.5" rx="19.5" ry="20.5" transform="translate(-0.043 -0.264)" fill="#444242"/>
        <ellipse id="Ellipse_101-7" data-name="Ellipse 101" cx="9.5" cy="9" rx="9.5" ry="9" transform="translate(9.957 10.736)" fill="#fff"/>
      </g>
      <g id="tire-8" data-name="tire" transform="translate(133.01 66.492)">
        <ellipse id="Ellipse_100-8" data-name="Ellipse 100" cx="20" cy="20.5" rx="20" ry="20.5" transform="translate(-0.05 -0.296)" fill="#444242"/>
        <ellipse id="Ellipse_101-8" data-name="Ellipse 101" cx="9" cy="9.5" rx="9" ry="9.5" transform="translate(10.95 10.704)" fill="#fff"/>
      </g>
      <rect id="Rectangle_357-4" data-name="Rectangle 357" width="15" height="6" rx="3" transform="translate(90.96 48.196)" fill="#5e5252"/>
      <circle id="Ellipse_102-4" data-name="Ellipse 102" cx="7.5" cy="7.5" r="7.5" transform="translate(22.96 45.196)" fill="#eca8a8"/>
    </g>
    <g id="car-5" data-name="car" transform="translate(373.046 685.279)">
      <rect id="Rectangle_355-5" data-name="Rectangle 355" width="204" height="23" rx="11.5" transform="translate(-0.046 63.721)" fill="#ee3838"/>
      <path id="Rectangle_356-5" data-name="Rectangle 356" d="M19.2,0H162.8A19.2,19.2,0,0,1,182,19.2v0A12.8,12.8,0,0,1,169.2,32H12.8A12.8,12.8,0,0,1,0,19.2v0A19.2,19.2,0,0,1,19.2,0Z" transform="translate(9.954 39.721)" fill="#ee3838"/>
      <g id="Group_14-5" data-name="Group 14" transform="translate(29.377 0)">
        <path id="Path_377-5" data-name="Path 377" d="M83.284-22.582S76.838-46.638,37.031-46.4-9.915-22.582-9.915-22.582L-24.669,25.67l122.98-.915Z" transform="translate(24.669 46.4)" fill="#ee3838"/>
        <path id="Path_379-5" data-name="Path 379" d="M4.533-1.348C12-6.3,27.959-5.832,27.959-5.832V17.588H-7.49S-2.931,3.606,4.533-1.348Z" transform="translate(28.01 18.571)" fill="#352e2e"/>
        <path id="Path_380-5" data-name="Path 380" d="M15.935-1.348C8.471-6.3-7.49-5.832-7.49-5.832V17.588H27.959S23.4,3.605,15.935-1.348Z" transform="translate(72.477 18.571)" fill="#352e2e"/>
      </g>
      <g id="tire-9" data-name="tire" transform="translate(128.01 68.158)">
        <ellipse id="Ellipse_100-9" data-name="Ellipse 100" cx="20" cy="20.5" rx="20" ry="20.5" transform="translate(-0.055 -0.437)" fill="#444242"/>
        <circle id="Ellipse_101-9" data-name="Ellipse 101" cx="9.5" cy="9.5" r="9.5" transform="translate(9.945 10.563)" fill="#fff"/>
      </g>
      <g id="tire-10" data-name="tire" transform="translate(32.002 67.174)">
        <ellipse id="Ellipse_100-10" data-name="Ellipse 100" cx="19.5" cy="20.5" rx="19.5" ry="20.5" transform="translate(-0.048 -0.454)" fill="#444242"/>
        <circle id="Ellipse_101-10" data-name="Ellipse 101" cx="9" cy="9" r="9" transform="translate(10.952 10.546)" fill="#fff"/>
      </g>
      <rect id="Rectangle_357-5" data-name="Rectangle 357" width="16" height="6" rx="3" transform="translate(97.954 47.721)" fill="#5e5252"/>
      <circle id="Ellipse_102-5" data-name="Ellipse 102" cx="8" cy="8" r="8" transform="translate(165.954 44.721)" fill="#eca8a8"/>
    </g>
    <g id="house2" transform="translate(5.236 1165.786)">
      <g id="land" transform="translate(0 228.041)">
        <path id="Path_390" data-name="Path 390" d="M-22.3-15.5S-6.821-38.7,84.4-38.7c36.673,0,113.138-4.489,158.572,0,67.47,6.666,99.631,23.2,99.631,23.2s25.6,15.357,25.6,43.838-.59,26.463-63.433,35.284c-42.481,5.963-58.231,42.307-112.257,29.991-25.85-5.893-45.675-6.637-78.385-7.057C81.2,86.135,13,78.279-9.3,63.624s-51.356,4.665-51.356-23.817S-22.3-15.5-22.3-15.5Z" transform="translate(60.652 49.982)" fill="#9e6934"/>
        <path id="Path_389" data-name="Path 389" d="M-23.706-15.5S-8.8-38.7,79.067-38.7c35.323,0,108.976-4.489,152.738,0,64.988,6.666,95.965,23.2,95.965,23.2S352.433-.141,352.433,28.34s-.568,26.463-61.1,35.284c-40.918,5.963-56.088,42.307-108.127,29.991-24.9-5.893-43.995-6.637-75.5-7.057-31.72-.423-97.413-8.279-118.892-22.934s-49.466,4.665-49.466-23.817S-23.706-15.5-23.706-15.5Z" transform="translate(71.557 40.694)" fill="#c29d6d"/>
      </g>
      <g id="house2-2" data-name="house2" transform="translate(69.458 0)">
        <g id="house" transform="translate(39.27)">
          <path id="Path_383" data-name="Path 383" d="M0-21.125,17.853-55.471,77.441-21.125V58.746H0Z" transform="translate(11.611 63.848)" fill="#d4bd88"/>
          <rect id="Rectangle_358" data-name="Rectangle 358" width="119" height="81" transform="translate(64.036 42.214)" fill="#f7dfa6"/>
          <path id="Path_382" data-name="Path 382" d="M17.728,0H29.352L3.327,53.831H-9.062Z" transform="translate(9.062)" fill="#224f4c"/>
          <path id="Path_381" data-name="Path 381" d="M0,0H144.338L172.6,52.63H30.722Z" transform="translate(26.231)" fill="#407b77"/>
          <rect id="Rectangle_375" data-name="Rectangle 375" width="73" height="55" transform="translate(87.036 63.214)" fill="#464343"/>
          <rect id="Rectangle_359" data-name="Rectangle 359" width="24" height="31" transform="translate(25.036 57.214)" fill="#464343"/>
          <path id="Path_385" data-name="Path 385" d="M0,0H22.541L7.31,31.577H0Z" transform="translate(25.012 56.344)" fill="#2a2727"/>
          <g id="kahoys" transform="translate(73.05 88.351)">
            <rect id="Rectangle_364" data-name="Rectangle 364" width="9" height="31" transform="translate(-0.015 -0.137)" fill="#d89243"/>
            <rect id="Rectangle_365" data-name="Rectangle 365" width="7" height="31" transform="translate(12.985 -0.137)" fill="#d89243"/>
            <rect id="Rectangle_366" data-name="Rectangle 366" width="8" height="31" transform="translate(23.985 -0.137)" fill="#d89243"/>
            <rect id="Rectangle_367" data-name="Rectangle 367" width="8" height="31" transform="translate(34.985 -0.137)" fill="#d89243"/>
            <rect id="Rectangle_368" data-name="Rectangle 368" width="7" height="31" transform="translate(46.985 -0.137)" fill="#d89243"/>
            <rect id="Rectangle_369" data-name="Rectangle 369" width="9" height="31" transform="translate(57.985 -0.137)" fill="#d89243"/>
            <rect id="Rectangle_370" data-name="Rectangle 370" width="8" height="31" transform="translate(69.985 -0.137)" fill="#d89243"/>
            <rect id="Rectangle_371" data-name="Rectangle 371" width="8" height="31" transform="translate(81.985 -0.137)" fill="#d89243"/>
            <rect id="Rectangle_372" data-name="Rectangle 372" width="8" height="31" transform="translate(92.985 -0.137)" fill="#d89243"/>
          </g>
          <rect id="Rectangle_373" data-name="Rectangle 373" width="102" height="3" transform="translate(73.036 94.214)" fill="#73563d"/>
          <rect id="Rectangle_374" data-name="Rectangle 374" width="102" height="2" transform="translate(73.036 117.214)" fill="#73563d"/>
        </g>
        <g id="house-2" data-name="house" transform="translate(0 122.594)">
          <path id="Path_383-2" data-name="Path 383" d="M0-5.233,26.027-55.471,112.895-5.233V111.6H0Z" transform="translate(16.927 67.724)" fill="#d4bd88"/>
          <rect id="Rectangle_358-2" data-name="Rectangle 358" width="175" height="117" transform="translate(92.306 62.62)" fill="#f7dfa6"/>
          <path id="Path_382-2" data-name="Path 382" d="M29.993,0H46.939L9,78.74H-9.062Z" transform="translate(9.062)" fill="#224f4c"/>
          <path id="Path_381-2" data-name="Path 381" d="M0,0H210.419l41.194,76.983H44.787Z" transform="translate(38.24)" fill="#407b77"/>
          <rect id="Rectangle_359-2" data-name="Rectangle 359" width="35" height="46" transform="translate(36.306 82.62)" fill="#464343"/>
          <rect id="Rectangle_360" data-name="Rectangle 360" width="24" height="35" transform="translate(110.306 95.62)" fill="#464343"/>
          <path id="Rectangle_362" data-name="Rectangle 362" d="M24.5,0h0A24.5,24.5,0,0,1,49,24.5V55a0,0,0,0,1,0,0H0a0,0,0,0,1,0,0V24.5A24.5,24.5,0,0,1,24.5,0Z" transform="translate(159.306 124.62)" fill="#464343"/>
          <path id="Path_385-2" data-name="Path 385" d="M0,0H32.86l-22.2,46.189H0Z" transform="translate(36.464 82.415)" fill="#2a2727"/>
          <path id="Path_386" data-name="Path 386" d="M0,0H21.069L8.752,35.321H0Z" transform="translate(111.058 96)" fill="#322e2e"/>
          <rect id="Rectangle_363" data-name="Rectangle 363" width="23" height="35" transform="translate(232.306 95.62)" fill="#464343"/>
          <path id="Path_387" data-name="Path 387" d="M0,0H21.069L8.752,35.321H0Z" transform="translate(232.717 96)" fill="#322e2e"/>
          <path id="Path_388" data-name="Path 388" d="M15.229,0H36.614L25.584,55.725H0V15.479A15.355,15.355,0,0,1,15.229,0Z" transform="translate(159.309 123.832)" fill="#322e2e"/>
        </g>
      </g>
    </g>
    <g id="clouds" transform="translate(-6 558.703)">
      <ellipse id="Ellipse_25" data-name="Ellipse 25" cx="26.5" cy="25.5" rx="26.5" ry="25.5" transform="translate(26 0.297)" fill="#fefefe"/>
      <ellipse id="Ellipse_26" data-name="Ellipse 26" cx="26.5" cy="26" rx="26.5" ry="26" transform="translate(53 16.297)" fill="#fefefe"/>
      <ellipse id="Ellipse_27" data-name="Ellipse 27" cx="26.5" cy="26" rx="26.5" ry="26" transform="translate(0 34.297)" fill="#fefefe"/>
      <ellipse id="Ellipse_28" data-name="Ellipse 28" cx="26.5" cy="26" rx="26.5" ry="26" transform="translate(96 34.297)" fill="#fefefe"/>
      <ellipse id="Ellipse_29" data-name="Ellipse 29" cx="43" cy="26" rx="43" ry="26" transform="translate(26 34.297)" fill="#fefefe"/>
      <path id="Path_63" data-name="Path 63" d="M-4.8,51.071s11.437,3.944,22.068,3.457,20.458-5.4,20.458-5.4a64.445,64.445,0,0,0,26.641,5.4C79.054,54.173,96.464,47.7,96.464,47.7S106.8,53.08,118.448,53.08,143.063,47.7,143.063,47.7a26.914,26.914,0,0,1-.827,4.31,42.958,42.958,0,0,1-1.729,4.748,27.568,27.568,0,0,1-6.793,8.464A29.613,29.613,0,0,1,118.448,71.3c-12.783,1.35-21.984-8.551-21.984-8.551A54.953,54.953,0,0,1,65.171,71.3C46.4,70.808,37.73,65.751,37.73,65.751S30.388,70.889,22.645,71.3,6.758,67.382,6.758,67.382s-5.577-3.466-8.345-7.666A21.328,21.328,0,0,1-4.8,51.071Z" transform="translate(5.529 14.954)" fill="#bac1cd"/>
    </g>
    <g id="clouds-2" data-name="clouds" transform="translate(68.006 498.701)">
      <ellipse id="Ellipse_25-2" data-name="Ellipse 25" cx="19.5" cy="17.5" rx="19.5" ry="17.5" transform="translate(48.994 0.299)" fill="#fefefe"/>
      <ellipse id="Ellipse_26-2" data-name="Ellipse 26" cx="18.5" cy="17.5" rx="18.5" ry="17.5" transform="translate(30.994 12.299)" fill="#fefefe"/>
      <ellipse id="Ellipse_27-2" data-name="Ellipse 27" cx="18.5" cy="18" rx="18.5" ry="18" transform="translate(67.994 24.299)" fill="#fefefe"/>
      <ellipse id="Ellipse_28-2" data-name="Ellipse 28" cx="19" cy="18" rx="19" ry="18" transform="translate(-0.006 24.299)" fill="#fefefe"/>
      <ellipse id="Ellipse_29-2" data-name="Ellipse 29" cx="30.5" cy="18" rx="30.5" ry="18" transform="translate(26.994 24.299)" fill="#fefefe"/>
      <path id="Path_63-2" data-name="Path 63" d="M100.182,50.012s-8.12,2.7-15.668,2.371a42.278,42.278,0,0,1-14.525-3.706,47.1,47.1,0,0,1-18.914,3.706C40.65,52.139,28.289,47.7,28.289,47.7A39.158,39.158,0,0,1,12.681,51.39C4.41,51.39-4.8,47.7-4.8,47.7a17.889,17.889,0,0,0,.587,2.955,28.827,28.827,0,0,0,1.227,3.256,18.989,18.989,0,0,0,4.823,5.8,21.441,21.441,0,0,0,10.839,4.165c9.075.926,15.608-5.864,15.608-5.864a39.971,39.971,0,0,0,22.217,5.864c13.331-.335,19.483-3.8,19.483-3.8S75.2,63.6,80.7,63.882,91.979,61.2,91.979,61.2A22.277,22.277,0,0,0,97.9,55.94,14.294,14.294,0,0,0,100.182,50.012Z" transform="translate(5.134 -4.272)" fill="#bac1cd"/>
    </g>
    <g id="land-2" data-name="land" transform="translate(964.439 198.59)">
      <path id="Path_390-2" data-name="Path 390" d="M-25.274-14.166S-11-38.594,73.14-38.594c33.825,0,104.353-4.726,146.258,0,62.231,7.018,91.894,24.427,91.894,24.427S334.908,2,334.908,31.988,334.364,59.85,276.4,69.137c-39.183,6.278-53.709,44.542-103.54,31.576-23.843-6.2-42.128-6.988-72.3-7.43-30.375-.445-93.28-8.716-113.848-24.146s-47.368,4.911-47.368-25.076S-25.274-14.166-25.274-14.166Z" transform="translate(60.652 49.982)" fill="#9e6934"/>
      <path id="Path_389-2" data-name="Path 389" d="M-26.685-14.166s13.7-24.427,94.488-24.427c32.476,0,100.19-4.726,140.424,0,59.749,7.018,88.229,24.427,88.229,24.427S319.13,2,319.13,31.988s-.522,27.862-56.173,37.149c-37.62,6.278-51.567,44.542-99.41,31.576-22.892-6.2-40.448-6.988-69.414-7.43C64.97,92.838,4.573,84.567-15.174,69.137s-45.478,4.911-45.478-25.076S-26.685-14.166-26.685-14.166Z" transform="translate(71.557 40.694)" fill="#c29d6d"/>
    </g>
    <g id="house-3" data-name="house" transform="translate(1005.143 137.359)">
      <path id="Path_383-3" data-name="Path 383" d="M0-21.125,17.853-55.471,77.441-21.125V58.746H0Z" transform="translate(11.611 63.848)" fill="#d4bd88"/>
      <rect id="Rectangle_358-3" data-name="Rectangle 358" width="119" height="81" transform="translate(63.857 42.641)" fill="#f7dfa6"/>
      <path id="Path_382-3" data-name="Path 382" d="M17.728,0H29.352L3.327,53.831H-9.062Z" transform="translate(9.062 0)" fill="#bc2e18"/>
      <path id="Path_381-3" data-name="Path 381" d="M0,0H144.338L172.6,52.63H30.722Z" transform="translate(26.231 0)" fill="#df3c23"/>
      <rect id="Rectangle_359-3" data-name="Rectangle 359" width="24" height="31" transform="translate(24.857 56.641)" fill="#464343"/>
      <rect id="Rectangle_360-2" data-name="Rectangle 360" width="16" height="24" transform="translate(75.857 65.641)" fill="#464343"/>
      <path id="Rectangle_362-2" data-name="Rectangle 362" d="M17,0h0A17,17,0,0,1,34,17V40a0,0,0,0,1,0,0H0a0,0,0,0,1,0,0V17A17,17,0,0,1,17,0Z" transform="translate(108.857 83.641)" fill="#464343"/>
      <path id="Path_385-3" data-name="Path 385" d="M0,0H22.541L7.31,31.577H0Z" transform="translate(25.012 56.344)" fill="#2a2727"/>
      <path id="Path_384" data-name="Path 384" d="M15.229,0h3.046a15.151,15.151,0,0,1,9.07,3.046,16.649,16.649,0,0,1,4.739,6L18.274,37.769H0V15.479A15.355,15.355,0,0,1,15.229,0Z" transform="translate(109.074 84.825)" fill="#322e2e"/>
      <path id="Path_386-2" data-name="Path 386" d="M0,0H14.452L6,24.147H0Z" transform="translate(76.181 65.631)" fill="#322e2e"/>
      <rect id="Rectangle_363-2" data-name="Rectangle 363" width="15" height="24" transform="translate(159.857 65.641)" fill="#464343"/>
      <path id="Path_387-2" data-name="Path 387" d="M0,0H14.452L6,24.147H0Z" transform="translate(159.634 65.631)" fill="#322e2e"/>
    </g>
    <g id="house-4" data-name="house" transform="translate(1130.018 168.317)">
      <path id="Path_383-4" data-name="Path 383" d="M0-21.125,17.853-55.471,77.441-21.125V58.746H0Z" transform="translate(11.611 63.848)" fill="#d4bd88"/>
      <rect id="Rectangle_358-4" data-name="Rectangle 358" width="120" height="80" transform="translate(63.982 42.683)" fill="#f7dfa6"/>
      <path id="Path_382-4" data-name="Path 382" d="M17.728,0H29.352L3.327,53.831H-9.062Z" transform="translate(9.062 0)" fill="#3a3433"/>
      <path id="Path_381-4" data-name="Path 381" d="M0,0H144.338L172.6,52.63H30.722Z" transform="translate(26.231 0)" fill="#5f5f5f"/>
      <rect id="Rectangle_359-4" data-name="Rectangle 359" width="24" height="33" transform="translate(24.982 55.683)" fill="#464343"/>
      <rect id="Rectangle_360-3" data-name="Rectangle 360" width="16" height="25" transform="translate(75.982 65.683)" fill="#464343"/>
      <path id="Rectangle_362-3" data-name="Rectangle 362" d="M17,0h0A17,17,0,0,1,34,17V38a0,0,0,0,1,0,0H0a0,0,0,0,1,0,0V17A17,17,0,0,1,17,0Z" transform="translate(108.982 84.683)" fill="#464343"/>
      <path id="Path_385-4" data-name="Path 385" d="M0,0H22.541L7.31,31.577H0Z" transform="translate(25.012 56.344)" fill="#2a2727"/>
      <path id="Path_384-2" data-name="Path 384" d="M15.229,0h3.046a15.151,15.151,0,0,1,9.07,3.046,16.649,16.649,0,0,1,4.739,6L18.274,37.769H0V15.479A15.355,15.355,0,0,1,15.229,0Z" transform="translate(109.074 84.825)" fill="#322e2e"/>
      <path id="Path_386-3" data-name="Path 386" d="M0,0H14.452L6,24.147H0Z" transform="translate(76.181 65.631)" fill="#322e2e"/>
      <rect id="Rectangle_363-3" data-name="Rectangle 363" width="16" height="25" transform="translate(158.982 65.683)" fill="#464343"/>
      <path id="Path_387-3" data-name="Path 387" d="M0,0H14.452L6,24.147H0Z" transform="translate(159.634 65.631)" fill="#322e2e"/>
    </g>
    <g id="clouds-3" data-name="clouds" transform="translate(1150.085 496.137)">
      <ellipse id="Ellipse_25-3" data-name="Ellipse 25" cx="26.5" cy="25.5" rx="26.5" ry="25.5" transform="translate(25.915 -0.137)" fill="#dde3ee"/>
      <ellipse id="Ellipse_26-3" data-name="Ellipse 26" cx="26.5" cy="25.5" rx="26.5" ry="25.5" transform="translate(52.915 17.863)" fill="#dde3ee"/>
      <ellipse id="Ellipse_27-3" data-name="Ellipse 27" cx="26.5" cy="25.5" rx="26.5" ry="25.5" transform="translate(-0.085 35.863)" fill="#dde3ee"/>
      <ellipse id="Ellipse_28-3" data-name="Ellipse 28" cx="26.5" cy="25.5" rx="26.5" ry="25.5" transform="translate(95.915 35.863)" fill="#dde3ee"/>
      <ellipse id="Ellipse_29-3" data-name="Ellipse 29" cx="43" cy="25.5" rx="43" ry="25.5" transform="translate(25.915 35.863)" fill="#dde3ee"/>
      <path id="Path_63-3" data-name="Path 63" d="M-4.8,51.071s11.437,3.944,22.068,3.457,20.458-5.4,20.458-5.4a64.445,64.445,0,0,0,26.641,5.4C79.054,54.173,96.464,47.7,96.464,47.7S106.8,53.08,118.448,53.08,143.063,47.7,143.063,47.7a26.914,26.914,0,0,1-.827,4.31,42.958,42.958,0,0,1-1.729,4.748,27.568,27.568,0,0,1-6.793,8.464A29.613,29.613,0,0,1,118.448,71.3c-12.783,1.35-21.984-8.551-21.984-8.551A54.953,54.953,0,0,1,65.171,71.3C46.4,70.808,37.73,65.751,37.73,65.751S30.388,70.889,22.645,71.3,6.758,67.382,6.758,67.382s-5.577-3.466-8.345-7.666A21.328,21.328,0,0,1-4.8,51.071Z" transform="translate(5.5 15.369)" fill="#bac1cd"/>
    </g>
    <g id="clouds-4" data-name="clouds" transform="translate(1200.089 539.532)">
      <ellipse id="Ellipse_25-4" data-name="Ellipse 25" cx="26.5" cy="25" rx="26.5" ry="25" transform="translate(25.911 0.468)" fill="#fefefe"/>
      <ellipse id="Ellipse_26-4" data-name="Ellipse 26" cx="26.5" cy="25.5" rx="26.5" ry="25.5" transform="translate(52.911 16.468)" fill="#fefefe"/>
      <ellipse id="Ellipse_27-4" data-name="Ellipse 27" cx="26.5" cy="26" rx="26.5" ry="26" transform="translate(-0.089 34.468)" fill="#fefefe"/>
      <ellipse id="Ellipse_28-4" data-name="Ellipse 28" cx="27" cy="26" rx="27" ry="26" transform="translate(94.911 34.468)" fill="#fefefe"/>
      <ellipse id="Ellipse_29-4" data-name="Ellipse 29" cx="43" cy="26" rx="43" ry="26" transform="translate(25.911 34.468)" fill="#fefefe"/>
      <path id="Path_63-4" data-name="Path 63" d="M-4.8,51.071s11.437,3.944,22.068,3.457,20.458-5.4,20.458-5.4a64.445,64.445,0,0,0,26.641,5.4C79.054,54.173,96.464,47.7,96.464,47.7S106.8,53.08,118.448,53.08,143.063,47.7,143.063,47.7a26.914,26.914,0,0,1-.827,4.31,42.958,42.958,0,0,1-1.729,4.748,27.568,27.568,0,0,1-6.793,8.464A29.613,29.613,0,0,1,118.448,71.3c-12.783,1.35-21.984-8.551-21.984-8.551A54.953,54.953,0,0,1,65.171,71.3C46.4,70.808,37.73,65.751,37.73,65.751S30.388,70.889,22.645,71.3,6.758,67.382,6.758,67.382s-5.577-3.466-8.345-7.666A21.328,21.328,0,0,1-4.8,51.071Z" transform="translate(5.273 14.886)" fill="#bac1cd"/>
    </g>
    <g id="clouds-5" data-name="clouds" transform="translate(108.08 654.421)">
      <ellipse id="Ellipse_25-5" data-name="Ellipse 25" cx="20" cy="18" rx="20" ry="18" transform="translate(19.92 -0.421)" fill="#fefefe"/>
      <ellipse id="Ellipse_26-5" data-name="Ellipse 26" cx="19" cy="18" rx="19" ry="18" transform="translate(40.92 11.579)" fill="#fefefe"/>
      <ellipse id="Ellipse_27-5" data-name="Ellipse 27" cx="20.5" cy="17.5" rx="20.5" ry="17.5" transform="translate(-0.08 23.579)" fill="#fefefe"/>
      <ellipse id="Ellipse_28-5" data-name="Ellipse 28" cx="20" cy="17.5" rx="20" ry="17.5" transform="translate(71.92 23.579)" fill="#fefefe"/>
      <ellipse id="Ellipse_29-5" data-name="Ellipse 29" cx="32" cy="17.5" rx="32" ry="17.5" transform="translate(19.92 23.579)" fill="#fefefe"/>
      <path id="Path_63-5" data-name="Path 63" d="M-4.8,50.057s8.609,2.758,16.611,2.417a46.206,46.206,0,0,0,15.4-3.779,51.6,51.6,0,0,0,20.053,3.779C58.319,52.226,71.424,47.7,71.424,47.7a42.821,42.821,0,0,0,16.548,3.761c8.769,0,18.529-3.761,18.529-3.761a17.615,17.615,0,0,1-.623,3.013,28.714,28.714,0,0,1-1.3,3.319,19.5,19.5,0,0,1-5.114,5.918A23.261,23.261,0,0,1,87.972,64.2c-9.622.944-16.548-5.979-16.548-5.979A43.577,43.577,0,0,1,47.87,64.2c-14.133-.342-20.656-3.878-20.656-3.878S21.688,63.913,15.86,64.2,3.9,61.462,3.9,61.462-.3,59.038-2.38,56.1A14.215,14.215,0,0,1-4.8,50.057Z" transform="translate(5.559 -4.475)" fill="#bac1cd"/>
    </g>
    <g id="Cactus-4" data-name="Cactus" transform="translate(445 353)">
      <g id="cactus-5" data-name="cactus" transform="translate(235.018 394.436)">
        <path id="Rectangle_351-3" data-name="Rectangle 351" d="M16,0h0a0,0,0,0,1,0,0V105a0,0,0,0,1,0,0H0a0,0,0,0,1,0,0V16A16,16,0,0,1,16,0Z" transform="translate(18.982 -0.436)" fill="#b9d52c"/>
        <path id="Rectangle_352-3" data-name="Rectangle 352" d="M0,0H0A16,16,0,0,1,16,16v89a0,0,0,0,1,0,0H0a0,0,0,0,1,0,0V0A0,0,0,0,1,0,0Z" transform="translate(34.982 -0.436)" fill="#8ea61a"/>
        <rect id="Rectangle_353-3" data-name="Rectangle 353" width="17" height="41" rx="8.5" transform="translate(-0.018 15.564)" fill="#7b9114"/>
        <rect id="Rectangle_354-3" data-name="Rectangle 354" width="16.098" height="26.193" rx="8.049" transform="translate(27.919 41.669) rotate(90)" fill="#7b9114"/>
      </g>
      <g id="cactus-6" data-name="cactus" transform="translate(292.022 435.748)">
        <path id="Rectangle_351-4" data-name="Rectangle 351" d="M0,0H0A10,10,0,0,1,10,10V66a0,0,0,0,1,0,0H0a0,0,0,0,1,0,0V0A0,0,0,0,1,0,0Z" transform="translate(10.978 0.252)" fill="#b9d52c"/>
        <path id="Rectangle_352-4" data-name="Rectangle 352" d="M11,0h0a0,0,0,0,1,0,0V66a0,0,0,0,1,0,0H0a0,0,0,0,1,0,0V11A11,11,0,0,1,11,0Z" transform="translate(-0.022 0.252)" fill="#8ea61a"/>
        <rect id="Rectangle_353-4" data-name="Rectangle 353" width="10" height="26" rx="5" transform="translate(22.978 10.252)" fill="#7b9114"/>
        <rect id="Rectangle_354-4" data-name="Rectangle 354" width="10.211" height="16.828" rx="5.106" transform="translate(31.962 26.434) rotate(90)" fill="#7b9114"/>
      </g>
    </g>
    <g id="Cactus-7" data-name="Cactus" transform="translate(202 556)">
      <g id="cactus-8" data-name="cactus" transform="translate(235.018 394.436)">
        <path id="Rectangle_351-5" data-name="Rectangle 351" d="M16,0h0a0,0,0,0,1,0,0V105a0,0,0,0,1,0,0H0a0,0,0,0,1,0,0V16A16,16,0,0,1,16,0Z" transform="translate(18.982 -0.436)" fill="#b9d52c"/>
        <path id="Rectangle_352-5" data-name="Rectangle 352" d="M0,0H0A16,16,0,0,1,16,16v89a0,0,0,0,1,0,0H0a0,0,0,0,1,0,0V0A0,0,0,0,1,0,0Z" transform="translate(34.982 -0.436)" fill="#8ea61a"/>
        <rect id="Rectangle_353-5" data-name="Rectangle 353" width="17" height="41" rx="8.5" transform="translate(-0.018 15.564)" fill="#7b9114"/>
        <rect id="Rectangle_354-5" data-name="Rectangle 354" width="16.098" height="26.193" rx="8.049" transform="translate(27.919 41.669) rotate(90)" fill="#7b9114"/>
      </g>
      <g id="cactus-9" data-name="cactus" transform="translate(292.022 435.748)">
        <path id="Rectangle_351-6" data-name="Rectangle 351" d="M0,0H0A10,10,0,0,1,10,10V66a0,0,0,0,1,0,0H0a0,0,0,0,1,0,0V0A0,0,0,0,1,0,0Z" transform="translate(10.978 0.252)" fill="#b9d52c"/>
        <path id="Rectangle_352-6" data-name="Rectangle 352" d="M11,0h0a0,0,0,0,1,0,0V66a0,0,0,0,1,0,0H0a0,0,0,0,1,0,0V11A11,11,0,0,1,11,0Z" transform="translate(-0.022 0.252)" fill="#8ea61a"/>
        <rect id="Rectangle_353-6" data-name="Rectangle 353" width="10" height="26" rx="5" transform="translate(22.978 10.252)" fill="#7b9114"/>
        <rect id="Rectangle_354-6" data-name="Rectangle 354" width="10.211" height="16.828" rx="5.106" transform="translate(31.962 26.434) rotate(90)" fill="#7b9114"/>
      </g>
    </g>
    <g id="Cactus-10" data-name="Cactus" transform="translate(612 -187)">
      <g id="cactus-11" data-name="cactus" transform="translate(235.018 394.436)">
        <path id="Rectangle_351-7" data-name="Rectangle 351" d="M16,0h0a0,0,0,0,1,0,0V105a0,0,0,0,1,0,0H0a0,0,0,0,1,0,0V16A16,16,0,0,1,16,0Z" transform="translate(18.982 -0.436)" fill="#b9d52c"/>
        <path id="Rectangle_352-7" data-name="Rectangle 352" d="M0,0H0A16,16,0,0,1,16,16v89a0,0,0,0,1,0,0H0a0,0,0,0,1,0,0V0A0,0,0,0,1,0,0Z" transform="translate(34.982 -0.436)" fill="#8ea61a"/>
        <rect id="Rectangle_353-7" data-name="Rectangle 353" width="17" height="41" rx="8.5" transform="translate(-0.018 15.564)" fill="#7b9114"/>
        <rect id="Rectangle_354-7" data-name="Rectangle 354" width="16.098" height="26.193" rx="8.049" transform="translate(27.919 41.669) rotate(90)" fill="#7b9114"/>
      </g>
      <g id="cactus-12" data-name="cactus" transform="translate(292.022 435.748)">
        <path id="Rectangle_351-8" data-name="Rectangle 351" d="M0,0H0A10,10,0,0,1,10,10V66a0,0,0,0,1,0,0H0a0,0,0,0,1,0,0V0A0,0,0,0,1,0,0Z" transform="translate(10.978 0.252)" fill="#b9d52c"/>
        <path id="Rectangle_352-8" data-name="Rectangle 352" d="M11,0h0a0,0,0,0,1,0,0V66a0,0,0,0,1,0,0H0a0,0,0,0,1,0,0V11A11,11,0,0,1,11,0Z" transform="translate(-0.022 0.252)" fill="#8ea61a"/>
        <rect id="Rectangle_353-8" data-name="Rectangle 353" width="10" height="26" rx="5" transform="translate(22.978 10.252)" fill="#7b9114"/>
        <rect id="Rectangle_354-8" data-name="Rectangle 354" width="10.211" height="16.828" rx="5.106" transform="translate(31.962 26.434) rotate(90)" fill="#7b9114"/>
      </g>
    </g>
    <g id="Cactus-13" data-name="Cactus" transform="translate(716 892)">
      <g id="cactus-14" data-name="cactus" transform="translate(235.018 394.436)">
        <path id="Rectangle_351-9" data-name="Rectangle 351" d="M16,0h0a0,0,0,0,1,0,0V105a0,0,0,0,1,0,0H0a0,0,0,0,1,0,0V16A16,16,0,0,1,16,0Z" transform="translate(18.982 -0.436)" fill="#b9d52c"/>
        <path id="Rectangle_352-9" data-name="Rectangle 352" d="M0,0H0A16,16,0,0,1,16,16v89a0,0,0,0,1,0,0H0a0,0,0,0,1,0,0V0A0,0,0,0,1,0,0Z" transform="translate(34.982 -0.436)" fill="#8ea61a"/>
        <rect id="Rectangle_353-9" data-name="Rectangle 353" width="17" height="41" rx="8.5" transform="translate(-0.018 15.564)" fill="#7b9114"/>
        <rect id="Rectangle_354-9" data-name="Rectangle 354" width="16.098" height="26.193" rx="8.049" transform="translate(27.919 41.669) rotate(90)" fill="#7b9114"/>
      </g>
      <g id="cactus-15" data-name="cactus" transform="translate(292.022 435.748)">
        <path id="Rectangle_351-10" data-name="Rectangle 351" d="M0,0H0A10,10,0,0,1,10,10V66a0,0,0,0,1,0,0H0a0,0,0,0,1,0,0V0A0,0,0,0,1,0,0Z" transform="translate(10.978 0.252)" fill="#b9d52c"/>
        <path id="Rectangle_352-10" data-name="Rectangle 352" d="M11,0h0a0,0,0,0,1,0,0V66a0,0,0,0,1,0,0H0a0,0,0,0,1,0,0V11A11,11,0,0,1,11,0Z" transform="translate(-0.022 0.252)" fill="#8ea61a"/>
        <rect id="Rectangle_353-10" data-name="Rectangle 353" width="10" height="26" rx="5" transform="translate(22.978 10.252)" fill="#7b9114"/>
        <rect id="Rectangle_354-10" data-name="Rectangle 354" width="10.211" height="16.828" rx="5.106" transform="translate(31.962 26.434) rotate(90)" fill="#7b9114"/>
      </g>
    </g>
    <g id="Cactus-16" data-name="Cactus" transform="translate(941 589)">
      <g id="cactus-17" data-name="cactus" transform="translate(235.018 394.436)">
        <path id="Rectangle_351-11" data-name="Rectangle 351" d="M16,0h0a0,0,0,0,1,0,0V105a0,0,0,0,1,0,0H0a0,0,0,0,1,0,0V16A16,16,0,0,1,16,0Z" transform="translate(18.982 -0.436)" fill="#b9d52c"/>
        <path id="Rectangle_352-11" data-name="Rectangle 352" d="M0,0H0A16,16,0,0,1,16,16v89a0,0,0,0,1,0,0H0a0,0,0,0,1,0,0V0A0,0,0,0,1,0,0Z" transform="translate(34.982 -0.436)" fill="#8ea61a"/>
        <rect id="Rectangle_353-11" data-name="Rectangle 353" width="17" height="41" rx="8.5" transform="translate(-0.018 15.564)" fill="#7b9114"/>
        <rect id="Rectangle_354-11" data-name="Rectangle 354" width="16.098" height="26.193" rx="8.049" transform="translate(27.919 41.669) rotate(90)" fill="#7b9114"/>
      </g>
      <g id="cactus-18" data-name="cactus" transform="translate(292.022 435.748)">
        <path id="Rectangle_351-12" data-name="Rectangle 351" d="M0,0H0A10,10,0,0,1,10,10V66a0,0,0,0,1,0,0H0a0,0,0,0,1,0,0V0A0,0,0,0,1,0,0Z" transform="translate(10.978 0.252)" fill="#b9d52c"/>
        <path id="Rectangle_352-12" data-name="Rectangle 352" d="M11,0h0a0,0,0,0,1,0,0V66a0,0,0,0,1,0,0H0a0,0,0,0,1,0,0V11A11,11,0,0,1,11,0Z" transform="translate(-0.022 0.252)" fill="#8ea61a"/>
        <rect id="Rectangle_353-12" data-name="Rectangle 353" width="10" height="26" rx="5" transform="translate(22.978 10.252)" fill="#7b9114"/>
        <rect id="Rectangle_354-12" data-name="Rectangle 354" width="10.211" height="16.828" rx="5.106" transform="translate(31.962 26.434) rotate(90)" fill="#7b9114"/>
      </g>
    </g>
    <g id="mountain">
      <g id="tunaw" transform="translate(-41.15 196.704)">
        <path id="Path_426" data-name="Path 426" d="M6.071,1.1c30.115-5.25,90.346-3.306,120.461,0s8.735,9.189,0,13.224,23.34-.755,24.771,20.264-43.341,21.958-44.991,16.751c.435,13.721,47.09,2.881,61.941,14.224s-69.91,17.573-54.509,19.333,27.25,8.909,39.014,17.6,9.486,30.487-26.224,35.494S6.071,126.3,6.071,126.3,35.417,77.258,37.782,54,8.735,43.657,7.848,36.3s38.371-3.634,36.007-6.429S15.517,29.29,6.071,22.1-24.044,6.345,6.071,1.1Z" transform="translate(179.532 66)" fill="#c29d6d"/>
        <path id="Path_427" data-name="Path 427" d="M153.96,134.39c-6.716,1.171-15.1-.13-28.383,3.532-45.142,12.449-86.385-14.438-65.562-38.978s-51.3,11.634-52.728-9.385S-8.948,78.5-9.663,58.584s58.5-2.213,57.064-16.815S13.033,34.811,9.674,17.875,32.057-2.154,32.057-2.154H152.519s-29.347,49.038-31.711,72.293,29.047,10.345,29.934,17.7-38.371,3.634-36.007,6.429,28.338.583,37.784,7.778S184.075,129.14,153.96,134.39Z" transform="translate(90 66)" fill="#c29d6d"/>
      </g>
      <path id="Path_644" data-name="Path 644" d="M17577,4198.424s30.021-26.64,53.238-51.335a533.214,533.214,0,0,0,39.629-47.447,500.066,500.066,0,0,0,40.381,49.257c23.191,24.7,52.389,49.525,52.389,49.525Z" transform="translate(-17445 -3876.424)" fill="#a5783e"/>
      <path id="Path_645" data-name="Path 645" d="M17577,4198.424s30.021-26.64,53.238-51.335a533.214,533.214,0,0,0,39.629-47.447l-3.242,44.286,24.426,54.5Z" transform="translate(-17445 -3876.424)" fill="#b68b54"/>
      <path id="Path_642" data-name="Path 642" d="M17577,4220s35.107-32.458,62.258-62.547a644.7,644.7,0,0,0,46.342-57.811,605.446,605.446,0,0,0,47.223,60.016c27.121,30.089,61.264,60.342,61.264,60.342Z" transform="translate(-17538 -3876)" fill="#a5783e"/>
      <path id="Path_643" data-name="Path 643" d="M17577,4220s35.107-32.458,62.258-62.547a644.7,644.7,0,0,0,46.342-57.811l-3.791,53.959,28.564,66.4Z" transform="translate(-17538 -3876)" fill="#d4ae7e"/>
    </g>
    <g id="tunaw-2" data-name="tunaw" transform="translate(36.069 908.679)">
      <path id="Path_426-2" data-name="Path 426" d="M167.732,1.228c-32.589-5.465-97.767-3.441-130.356,0s-9.453,9.565,0,13.766-25.257-.786-26.805,21.095,46.9,22.858,48.687,17.437c-.471,14.283-50.958,3-67.029,14.807S67.881,86.627,51.216,88.459,21.727,97.734,9,106.782-1.268,138.518,37.376,143.73s130.356-12.169,130.356-12.169S135.975,80.513,133.416,56.3s31.433-10.769,32.393-18.425-41.523-3.783-38.964-6.692,30.666-.607,40.888-8.1S200.321,6.694,167.732,1.228Z" transform="translate(9.669 2.154)" fill="#dfb278"/>
      <path id="Path_427-2" data-name="Path 427" d="M6.854,139.988c7.267,1.219,16.345-.136,30.714,3.677,48.85,12.96,93.481-15.03,70.948-40.576s55.511,12.111,57.059-9.769S183.143,81.8,183.917,61.074s-63.3-2.3-61.751-17.5,37.192-7.244,40.826-24.874S138.77-2.154,138.77-2.154H8.413S40.171,48.895,42.73,73.1,11.3,83.872,10.337,91.529,51.86,95.311,49.3,98.221s-30.666.607-40.888,8.1S-25.735,134.522,6.854,139.988Z" transform="translate(107.396 2.154)" fill="#dfb278"/>
    </g>
    <g id="mountain-2" data-name="mountain" transform="translate(43.457 822.291)">
      <path id="Path_420" data-name="Path 420" d="M86.452,14.843C20.847,14.843,0,167.546,0,167.546H173.665S152.057,14.843,86.452,14.843Z" transform="translate(0 -14.837)" fill="#c29d6d"/>
      <path id="Path_422" data-name="Path 422" d="M0,14.843v152.7H87.213S83.471,135.175,68.086,89.78,0,14.843,0,14.843Z" transform="translate(86.452 -14.837)" fill="#ad824b"/>
      <path id="Path_421" data-name="Path 421" d="M85.86,14.845c-50.778.878-73.184,91.918-73.184,91.918L37.3,85.7l26.511,21.063L85.86,85.7l28.6,21.063L133.4,85.7l25.565,21.063S136.639,13.967,85.86,14.845Z" transform="translate(0.592 -14.839)" fill="#f7e1c3"/>
    </g>
    <g id="mountain-3" data-name="mountain" transform="translate(139.457 881.839)">
      <path id="Path_420-2" data-name="Path 420" d="M77.659,14.843C18.727,14.843,0,132,0,132H156S136.591,14.843,77.659,14.843Z" transform="translate(0 -14.839)" fill="#c29d6d"/>
      <path id="Path_422-2" data-name="Path 422" d="M0,14.843V132H78.342S74.981,107.164,61.16,72.336,0,14.843,0,14.843Z" transform="translate(77.659 -14.839)" fill="#ad824b"/>
      <path id="Path_421-2" data-name="Path 421" d="M78.416,14.843C32.8,15.517,12.676,85.364,12.676,85.364L34.791,69.2l23.815,16.16L78.416,69.2l25.69,16.16L121.118,69.2l22.965,16.16S124.03,14.17,78.416,14.843Z" transform="translate(-0.758 -14.839)" fill="#f7e1c3"/>
    </g>
    <g id="branch" transform="translate(1212.715 603.117)">
      <path id="Path_324" data-name="Path 324" d="M-.546-1.416,2.018-16.8V-1.416s2.994,36.339,4.054,64.98S8.4,109.595,8.4,109.595H-3.544s.232-29.353.773-57.995S-.546-1.416-.546-1.416Z" transform="translate(31.678 -33.463)" fill="#c29d6d"/>
      <path id="Path_327" data-name="Path 327" d="M1.042,18.795C.5,27.611,3.518,41.109,3.518,41.109s1.3-12.581,2.618-21.481A127.863,127.863,0,0,0,7.346,1.784L0,0A101.075,101.075,0,0,1,1.042,18.795Z" transform="translate(34.588 20.662) rotate(-137)" fill="#c29d6d"/>
      <path id="Path_325" data-name="Path 325" d="M3.2,18.578C2.686,9.892,5.936.388,5.936.388s.7,8.59,2.01,17.357a82.014,82.014,0,0,0,4.8,17.106L2.718,40.458A205.533,205.533,0,0,0,3.2,18.578Z" transform="translate(2.169 -17.609) rotate(-39)" fill="#c29d6d"/>
    </g>
    <g id="branch-2" data-name="branch" transform="translate(1232.715 1187.117)">
      <path id="Path_324-2" data-name="Path 324" d="M-.546-1.416,2.018-16.8V-1.416s2.994,36.339,4.054,64.98S8.4,109.595,8.4,109.595H-3.544s.232-29.353.773-57.995S-.546-1.416-.546-1.416Z" transform="translate(31.678 -33.463)" fill="#c29d6d"/>
      <path id="Path_327-2" data-name="Path 327" d="M1.042,18.795C.5,27.611,3.518,41.109,3.518,41.109s1.3-12.581,2.618-21.481A127.863,127.863,0,0,0,7.346,1.784L0,0A101.075,101.075,0,0,1,1.042,18.795Z" transform="translate(34.588 20.662) rotate(-137)" fill="#c29d6d"/>
      <path id="Path_325-2" data-name="Path 325" d="M3.2,18.578C2.686,9.892,5.936.388,5.936.388s.7,8.59,2.01,17.357a82.014,82.014,0,0,0,4.8,17.106L2.718,40.458A205.533,205.533,0,0,0,3.2,18.578Z" transform="translate(2.169 -17.609) rotate(-39)" fill="#c29d6d"/>
    </g>
    <g id="branch-3" data-name="branch" transform="translate(813.715 991.117)">
      <path id="Path_324-3" data-name="Path 324" d="M-.546-1.416,2.018-16.8V-1.416s2.994,36.339,4.054,64.98S8.4,109.595,8.4,109.595H-3.544s.232-29.353.773-57.995S-.546-1.416-.546-1.416Z" transform="translate(31.678 -33.463)" fill="#c29d6d"/>
      <path id="Path_327-3" data-name="Path 327" d="M1.042,18.795C.5,27.611,3.518,41.109,3.518,41.109s1.3-12.581,2.618-21.481A127.863,127.863,0,0,0,7.346,1.784L0,0A101.075,101.075,0,0,1,1.042,18.795Z" transform="translate(34.588 20.662) rotate(-137)" fill="#c29d6d"/>
      <path id="Path_325-3" data-name="Path 325" d="M3.2,18.578C2.686,9.892,5.936.388,5.936.388s.7,8.59,2.01,17.357a82.014,82.014,0,0,0,4.8,17.106L2.718,40.458A205.533,205.533,0,0,0,3.2,18.578Z" transform="translate(2.169 -17.609) rotate(-39)" fill="#c29d6d"/>
    </g>
    <g id="branch-4" data-name="branch" transform="translate(293.715 153.117)">
      <path id="Path_324-4" data-name="Path 324" d="M-.546-1.416,2.018-16.8V-1.416s2.994,36.339,4.054,64.98S8.4,109.595,8.4,109.595H-3.544s.232-29.353.773-57.995S-.546-1.416-.546-1.416Z" transform="translate(31.678 -33.463)" fill="#c29d6d"/>
      <path id="Path_327-4" data-name="Path 327" d="M1.042,18.795C.5,27.611,3.518,41.109,3.518,41.109s1.3-12.581,2.618-21.481A127.863,127.863,0,0,0,7.346,1.784L0,0A101.075,101.075,0,0,1,1.042,18.795Z" transform="translate(34.588 20.662) rotate(-137)" fill="#c29d6d"/>
      <path id="Path_325-4" data-name="Path 325" d="M3.2,18.578C2.686,9.892,5.936.388,5.936.388s.7,8.59,2.01,17.357a82.014,82.014,0,0,0,4.8,17.106L2.718,40.458A205.533,205.533,0,0,0,3.2,18.578Z" transform="translate(2.169 -17.609) rotate(-39)" fill="#c29d6d"/>
    </g>
    <g id="branch-5" data-name="branch" transform="translate(1166.715 1228.117)">
      <path id="Path_324-5" data-name="Path 324" d="M-.546-1.416,2.018-16.8V-1.416s2.994,36.339,4.054,64.98S8.4,109.595,8.4,109.595H-3.544s.232-29.353.773-57.995S-.546-1.416-.546-1.416Z" transform="translate(31.678 -33.463)" fill="#c29d6d"/>
      <path id="Path_327-5" data-name="Path 327" d="M1.042,18.795C.5,27.611,3.518,41.109,3.518,41.109s1.3-12.581,2.618-21.481A127.863,127.863,0,0,0,7.346,1.784L0,0A101.075,101.075,0,0,1,1.042,18.795Z" transform="translate(34.588 20.662) rotate(-137)" fill="#c29d6d"/>
      <path id="Path_325-5" data-name="Path 325" d="M3.2,18.578C2.686,9.892,5.936.388,5.936.388s.7,8.59,2.01,17.357a82.014,82.014,0,0,0,4.8,17.106L2.718,40.458A205.533,205.533,0,0,0,3.2,18.578Z" transform="translate(2.169 -17.609) rotate(-39)" fill="#c29d6d"/>
    </g>
    <g id="branch-6" data-name="branch" transform="translate(38.715 740.117)">
      <path id="Path_324-6" data-name="Path 324" d="M-.546-1.416,2.018-16.8V-1.416s2.994,36.339,4.054,64.98S8.4,109.595,8.4,109.595H-3.544s.232-29.353.773-57.995S-.546-1.416-.546-1.416Z" transform="translate(31.678 -33.463)" fill="#c29d6d"/>
      <path id="Path_327-6" data-name="Path 327" d="M1.042,18.795C.5,27.611,3.518,41.109,3.518,41.109s1.3-12.581,2.618-21.481A127.863,127.863,0,0,0,7.346,1.784L0,0A101.075,101.075,0,0,1,1.042,18.795Z" transform="translate(34.588 20.662) rotate(-137)" fill="#c29d6d"/>
      <path id="Path_325-6" data-name="Path 325" d="M3.2,18.578C2.686,9.892,5.936.388,5.936.388s.7,8.59,2.01,17.357a82.014,82.014,0,0,0,4.8,17.106L2.718,40.458A205.533,205.533,0,0,0,3.2,18.578Z" transform="translate(2.169 -17.609) rotate(-39)" fill="#c29d6d"/>
    </g>
    <g id="branch-7" data-name="branch" transform="translate(339.715 1006.117)">
      <path id="Path_324-7" data-name="Path 324" d="M-.546-1.416,2.018-16.8V-1.416s2.994,36.339,4.054,64.98S8.4,109.595,8.4,109.595H-3.544s.232-29.353.773-57.995S-.546-1.416-.546-1.416Z" transform="translate(31.678 -33.463)" fill="#c29d6d"/>
      <path id="Path_327-7" data-name="Path 327" d="M1.042,18.795C.5,27.611,3.518,41.109,3.518,41.109s1.3-12.581,2.618-21.481A127.863,127.863,0,0,0,7.346,1.784L0,0A101.075,101.075,0,0,1,1.042,18.795Z" transform="translate(34.588 20.662) rotate(-137)" fill="#c29d6d"/>
      <path id="Path_325-7" data-name="Path 325" d="M3.2,18.578C2.686,9.892,5.936.388,5.936.388s.7,8.59,2.01,17.357a82.014,82.014,0,0,0,4.8,17.106L2.718,40.458A205.533,205.533,0,0,0,3.2,18.578Z" transform="translate(2.169 -17.609) rotate(-39)" fill="#c29d6d"/>
    </g>
    <g id="tunaw-3" data-name="tunaw" transform="translate(1043.068 673.679)">
      <path id="Path_426-3" data-name="Path 426" d="M167.732,1.228c-32.589-5.465-97.767-3.441-130.356,0s-9.453,9.565,0,13.766-25.257-.786-26.805,21.095,46.9,22.858,48.687,17.437c-.471,14.283-50.958,3-67.029,14.807S67.881,86.627,51.216,88.459,21.727,97.734,9,106.782-1.268,138.518,37.376,143.73s130.356-12.169,130.356-12.169S135.975,80.513,133.416,56.3s31.433-10.769,32.393-18.425-41.523-3.783-38.964-6.692,30.666-.607,40.888-8.1S200.321,6.694,167.732,1.228Z" transform="translate(9.669 2.154)" fill="#dfb278"/>
      <path id="Path_427-3" data-name="Path 427" d="M6.854,139.988c7.267,1.219,16.345-.136,30.714,3.677,48.85,12.96,93.481-15.03,70.948-40.576s55.511,12.111,57.059-9.769S183.143,81.8,183.917,61.074s-63.3-2.3-61.751-17.5,37.192-7.244,40.826-24.874S138.77-2.154,138.77-2.154H8.413S40.171,48.895,42.73,73.1,11.3,83.872,10.337,91.529,51.86,95.311,49.3,98.221s-30.666.607-40.888,8.1S-25.735,134.522,6.854,139.988Z" transform="translate(107.396 2.154)" fill="#dfb278"/>
    </g>
    <g id="mountain-4" data-name="mountain" transform="translate(1050.457 587.291)">
      <path id="Path_420-3" data-name="Path 420" d="M86.452,14.843C20.847,14.843,0,167.546,0,167.546H173.665S152.057,14.843,86.452,14.843Z" transform="translate(0 -14.837)" fill="#c29d6d"/>
      <path id="Path_422-3" data-name="Path 422" d="M0,14.843v152.7H87.213S83.471,135.175,68.086,89.78,0,14.843,0,14.843Z" transform="translate(86.452 -14.837)" fill="#ad824b"/>
      <path id="Path_421-3" data-name="Path 421" d="M85.86,14.845c-50.778.878-73.184,91.918-73.184,91.918L37.3,85.7l26.511,21.063L85.86,85.7l28.6,21.063L133.4,85.7l25.565,21.063S136.639,13.967,85.86,14.845Z" transform="translate(0.592 -14.839)" fill="#ebd2b1"/>
    </g>
    <g id="mountain-5" data-name="mountain" transform="translate(1146.457 646.839)">
      <path id="Path_420-4" data-name="Path 420" d="M77.659,14.843C18.727,14.843,0,132,0,132H156S136.591,14.843,77.659,14.843Z" transform="translate(0 -14.839)" fill="#c29d6d"/>
      <path id="Path_422-4" data-name="Path 422" d="M0,14.843V132H78.342S74.981,107.164,61.16,72.336,0,14.843,0,14.843Z" transform="translate(77.659 -14.839)" fill="#ad824b"/>
      <path id="Path_421-4" data-name="Path 421" d="M78.416,14.843C32.8,15.517,12.676,85.364,12.676,85.364L34.791,69.2l23.815,16.16L78.416,69.2l25.69,16.16L121.118,69.2l22.965,16.16S124.03,14.17,78.416,14.843Z" transform="translate(-0.758 -14.839)" fill="#ebd2b1"/>
    </g>
  </g>
</svg>
