<svg xmlns="http://www.w3.org/2000/svg" width="187" height="179.119" viewBox="0 0 187 179.119">
  <g id="filipino_lock" transform="translate(-941 -210)">
    <path id="Path_1165" data-name="Path 1165" d="M90.9,0c50.2,0,90.9,38.626,90.9,86.273s-40.7,86.273-90.9,86.273S0,133.92,0,86.273,40.7,0,90.9,0Z" transform="translate(941 216.573)" fill="#936934"/>
    <path id="Path_1164" data-name="Path 1164" d="M90.9,0c50.2,0,90.9,38.626,90.9,86.273s-40.7,86.273-90.9,86.273S0,133.92,0,86.273,40.7,0,90.9,0Z" transform="translate(946.194 210)" fill="#b48447"/>
    <path id="Path_1163" data-name="Path 1163" d="M69.259,0c38.251,0,69.259,29.429,69.259,65.732s-31.008,65.732-69.259,65.732S0,102.034,0,65.732,31.008,0,69.259,0Z" transform="translate(967.838 230.541)" fill="#dcb583"/>
    <g id="Group_43" data-name="Group 43" transform="translate(4.223 -42.089)">
      <rect id="Rectangle_552" data-name="Rectangle 552" width="46" height="39" rx="11" transform="translate(1009.777 333.208)" fill="#b48447"/>
      <path id="Path_1169" data-name="Path 1169" d="M15.857,0A15.857,15.857,0,0,1,31.715,15.857v18.9H24.929s.291-10.481,0-18.9c-.115-7.845-7.818-8.778-9.072-8.774s-8.229,1.6-8.527,8.774c-.284,6.839,0,19.279,0,19.279L0,34.756v-18.9A15.857,15.857,0,0,1,15.857,0Z" transform="translate(1017.379 304)" fill="#b48447"/>
    </g>
    <g id="Group_47" data-name="Group 47" transform="translate(939.186 206.119)">
      <circle id="Ellipse_247" data-name="Ellipse 247" cx="4.5" cy="4.5" r="4.5" transform="translate(93.814 93)" fill="#dcb583"/>
      <path id="Path_1172" data-name="Path 1172" d="M1.215,0H5.924L7,11.371H0Z" transform="translate(94.814 100)" fill="#dcb583"/>
    </g>
  </g>
</svg>
