<svg xmlns="http://www.w3.org/2000/svg" width="165.802" height="167.641" viewBox="0 0 165.802 167.641">
  <g id="math_passed" transform="translate(0 8.827)">
    <ellipse id="Ellipse_105" data-name="Ellipse 105" cx="80.598" cy="76.493" rx="80.598" ry="76.493" transform="translate(0 5.828)" fill="#777"/>
    <ellipse id="Ellipse_103" data-name="Ellipse 103" cx="80.598" cy="76.493" rx="80.598" ry="76.493" transform="translate(4.606)" fill="#e8e8e8"/>
    <ellipse id="Ellipse_104" data-name="Ellipse 104" cx="61.408" cy="58.28" rx="61.408" ry="58.28" transform="translate(23.796 18.213)" fill="#9a9191"/>
    <text id="_1" data-name="1" transform="translate(83.246 98.113)" fill="#fff" font-size="71" font-family="Calibri-Bold, Calibri" font-weight="700"><tspan x="-17.993" y="0">1</tspan></text>
    <g id="medal" transform="translate(-943.785 -209.489)">
      <path id="Path_1197" data-name="Path 1197" d="M-.315-.89A80.81,80.81,0,0,1,17.191.34,57.027,57.027,0,0,1,33.274,6.828L33.719,52.4,3.551,35.009Z" transform="translate(989.888 219.497) rotate(-30)" fill="#d51010"/>
      <path id="Path_1198" data-name="Path 1198" d="M0,0,4.356,2.049,5.9,35.571,1.4,34.02Z" transform="matrix(0.819, 0.574, -0.574, 0.819, 1026.144, 215.598)" fill="#c60a0a"/>
      <g id="Rectangle_562" data-name="Rectangle 562" transform="translate(1004.599 244.489)" fill="none" stroke="#f7ff34" stroke-width="3">
        <rect width="48" height="8" rx="3" stroke="none"/>
        <rect x="1.5" y="1.5" width="45" height="5" rx="1.5" fill="none"/>
      </g>
      <path id="Path_1196" data-name="Path 1196" d="M2.959,18.526,33.055,0l-.368,46.99a50.331,50.331,0,0,1-16.033,7.167A69.642,69.642,0,0,1,.2,55.842Z" transform="matrix(-0.848, -0.53, 0.53, -0.848, 1038.489, 265.551)" fill="#d51010"/>
      <g id="Path_1200" data-name="Path 1200" transform="translate(992.607 255.095)" fill="#ffe600">
        <path d="M 36.25860214233398 68.01720428466797 C 31.96924209594727 68.01720428466797 27.81056213378906 67.17813873291016 23.89810943603516 65.52330780029297 C 20.11685562133789 63.9239616394043 16.7199878692627 61.63343048095703 13.80188179016113 58.7153205871582 C 10.88377571105957 55.79721450805664 8.593241691589355 52.40036392211914 6.993908882141113 48.61911010742188 C 5.33906888961792 44.70664215087891 4.500001907348633 40.5479736328125 4.500001907348633 36.25860214233398 C 4.500001907348633 31.96924209594727 5.33906888961792 27.81056213378906 6.993908882141113 23.89810943603516 C 8.593241691589355 20.11685562133789 10.88377571105957 16.7199878692627 13.80188179016113 13.80188179016113 C 16.7199878692627 10.88377571105957 20.11685562133789 8.593241691589355 23.89810943603516 6.993908882141113 C 27.81056213378906 5.33906888961792 31.96924209594727 4.500001907348633 36.25860214233398 4.500001907348633 C 40.5479736328125 4.500001907348633 44.70664215087891 5.33906888961792 48.61911010742188 6.993908882141113 C 52.40036392211914 8.593241691589355 55.79721450805664 10.88377571105957 58.7153205871582 13.80188179016113 C 61.63343048095703 16.7199878692627 63.9239616394043 20.11685562133789 65.52330780029297 23.89810943603516 C 67.17813873291016 27.81056213378906 68.01720428466797 31.96924209594727 68.01720428466797 36.25860214233398 C 68.01720428466797 40.5479736328125 67.17813873291016 44.70664215087891 65.52330780029297 48.61911010742188 C 63.9239616394043 52.40036392211914 61.63343048095703 55.79721450805664 58.7153205871582 58.7153205871582 C 55.79721450805664 61.63343048095703 52.40036392211914 63.9239616394043 48.61911010742188 65.52330780029297 C 44.70664215087891 67.17813873291016 40.5479736328125 68.01720428466797 36.25860214233398 68.01720428466797 Z" stroke="none"/>
        <path d="M 36.25860214233398 9.000003814697266 C 21.22816467285156 9.000003814697266 9.000003814697266 21.22816467285156 9.000003814697266 36.25860214233398 C 9.000003814697266 51.28903961181641 21.22816467285156 63.51720428466797 36.25860214233398 63.51720428466797 C 51.28903961181641 63.51720428466797 63.51720428466797 51.28903961181641 63.51720428466797 36.25860214233398 C 63.51720428466797 21.22816467285156 51.28903961181641 9.000003814697266 36.25860214233398 9.000003814697266 M 36.25860214233398 0 C 56.28367614746094 0 72.51720428466797 16.23352813720703 72.51720428466797 36.25860214233398 C 72.51720428466797 56.28367614746094 56.28367614746094 72.51720428466797 36.25860214233398 72.51720428466797 C 16.23352813720703 72.51720428466797 0 56.28367614746094 0 36.25860214233398 C 0 16.23352813720703 16.23352813720703 0 36.25860214233398 0 Z" stroke="none" fill="#ffd500"/>
      </g>
      <rect id="Rectangle_563" data-name="Rectangle 563" width="15" height="8" transform="translate(1020.599 252.489)" fill="#ffd500"/>
      <g id="Group_57" data-name="Group 57" transform="translate(1008.051 273.534)">
        <path id="Path_1186" data-name="Path 1186" d="M6.146,0c2.166-.013,6.146,13.659,6.146,13.659H0S3.98.013,6.146,0Z" transform="translate(14.484 0)" fill="#b5901a"/>
        <path id="Path_1188" data-name="Path 1188" d="M6.147,13.658C8.313,13.671,12.293,0,12.293,0H0S3.98,13.644,6.147,13.658Z" transform="translate(28.466 23.552) rotate(-109)" fill="#b5901a"/>
        <path id="Path_1189" data-name="Path 1189" d="M6.147,13.658C8.313,13.671,12.293,0,12.293,0H0S3.98,13.644,6.147,13.658Z" transform="matrix(0.755, -0.656, 0.656, 0.755, 19.705, 28.927)" fill="#b5901a"/>
        <path id="Path_1190" data-name="Path 1190" d="M6.146,0c2.166-.013,6.147,13.657,6.147,13.657H0S3.98.013,6.146,0Z" transform="translate(12.591 39.234) rotate(-139)" fill="#b5901a"/>
        <rect id="Rectangle_557" data-name="Rectangle 557" width="17" height="16" transform="translate(12.548 12.955)" fill="#b5901a"/>
        <path id="Path_1199" data-name="Path 1199" d="M6.147,0c2.166-.013,6.146,13.658,6.146,13.658H0S3.98.013,6.147,0Z" transform="translate(0 19.105) rotate(-71)" fill="#b5901a"/>
      </g>
    </g>
  </g>
</svg>
