<svg xmlns="http://www.w3.org/2000/svg" width="200.344" height="203.532" viewBox="0 0 200.344 203.532">
  <g id="science_passed" transform="translate(-941 -198.368)">
    <ellipse id="Ellipse_105" data-name="Ellipse 105" cx="97.389" cy="92.429" rx="97.389" ry="92.429" transform="translate(941 217.042)" fill="#474343"/>
    <path id="Path_1166" data-name="Path 1166" d="M97.389,0c53.787,0,97.389,41.382,97.389,92.429s-43.6,92.429-97.389,92.429S0,143.476,0,92.429,43.6,0,97.389,0Z" transform="translate(946.565 210)" fill="#a59a9a"/>
    <ellipse id="Ellipse_104" data-name="Ellipse 104" cx="74.201" cy="70.422" rx="74.201" ry="70.422" transform="translate(969.753 232.007)" fill="#544e4e"/>
    <text id="_1" data-name="1" transform="translate(1042.839 333.387)" fill="#fff" font-size="91" font-family="Calibri-Bold, Calibri" font-weight="700"><tspan x="-23.061" y="0">1</tspan></text>
    <g id="medal" transform="translate(10.344 -1.219)">
      <path id="Path_1197" data-name="Path 1197" d="M-1.2-5.081a137.162,137.162,0,0,1,20.071,2.26A70.025,70.025,0,0,1,37.15,4.164l.51,52.16L3.131,36.419Z" transform="translate(992.522 225.07) rotate(-30)" fill="#d51010"/>
      <path id="Path_1198" data-name="Path 1198" d="M-2.2-1.526,2.789.82,4.554,39.187-.6,37.412Z" transform="matrix(0.819, 0.574, -0.574, 0.819, 1032.309, 220.423)" fill="#c60a0a"/>
      <g id="Rectangle_562" data-name="Rectangle 562" transform="translate(1008 251.119)" fill="none" stroke="#f7ff34" stroke-width="3">
        <rect width="53" height="10" rx="3" stroke="none"/>
        <rect x="1.5" y="1.5" width="50" height="7" rx="1.5" fill="none"/>
      </g>
      <path id="Path_1196" data-name="Path 1196" d="M3.876,15.949l34.447-21.2L37.9,48.528S27.826,55.41,17.739,57.705A93.784,93.784,0,0,1,.49,60.132Z" transform="matrix(-0.848, -0.53, 0.53, -0.848, 1048.714, 270.89)" fill="#d51010"/>
      <g id="Path_1200" data-name="Path 1200" transform="translate(993 263.119)" fill="#ffe600">
        <path d="M 41.5 78.5 C 36.50304794311523 78.5 31.6579532623291 77.52235412597656 27.09930801391602 75.59420013427734 C 22.69390678405762 73.73088073730469 18.73652267456055 71.06241607666016 15.33704662322998 67.66295623779297 C 11.93758487701416 64.26347351074219 9.269123077392578 60.30609130859375 7.405799865722656 55.90069198608398 C 5.477646350860596 51.34204483032227 4.5 46.49695205688477 4.5 41.5 C 4.5 36.50304794311523 5.477646350860596 31.6579532623291 7.405799865722656 27.09930801391602 C 9.269123077392578 22.69390678405762 11.93758487701416 18.73652267456055 15.33704662322998 15.33704662322998 C 18.73652267456055 11.93758487701416 22.69390678405762 9.269123077392578 27.09930801391602 7.405799865722656 C 31.6579532623291 5.477646350860596 36.50304794311523 4.5 41.5 4.5 C 46.49695205688477 4.5 51.34204483032227 5.477646350860596 55.90069198608398 7.405799865722656 C 60.30609130859375 9.269123077392578 64.26347351074219 11.93758487701416 67.66295623779297 15.33704662322998 C 71.06241607666016 18.73652267456055 73.73088073730469 22.69390678405762 75.59420013427734 27.09930801391602 C 77.52235412597656 31.6579532623291 78.5 36.50304794311523 78.5 41.5 C 78.5 46.49695205688477 77.52235412597656 51.34204483032227 75.59420013427734 55.90069198608398 C 73.73088073730469 60.30609130859375 71.06241607666016 64.26347351074219 67.66295623779297 67.66295623779297 C 64.26347351074219 71.06241607666016 60.30609130859375 73.73088073730469 55.90069198608398 75.59420013427734 C 51.34204483032227 77.52235412597656 46.49695205688477 78.5 41.5 78.5 Z" stroke="none"/>
        <path d="M 41.5 9 C 23.57944107055664 9 9 23.57944107055664 9 41.5 C 9 59.42056274414063 23.57944107055664 74 41.5 74 C 59.42056274414063 74 74 59.42056274414063 74 41.5 C 74 23.57944107055664 59.42056274414063 9 41.5 9 M 41.5 0 C 64.41982269287109 0 83 18.58017730712891 83 41.5 C 83 64.41982269287109 64.41982269287109 83 41.5 83 C 18.58017730712891 83 0 64.41982269287109 0 41.5 C 0 18.58017730712891 18.58017730712891 0 41.5 0 Z" stroke="none" fill="#ffd500"/>
      </g>
      <rect id="Rectangle_563" data-name="Rectangle 563" width="17" height="8" transform="translate(1026 261.119)" fill="#ffd500"/>
      <g id="Group_57" data-name="Group 57" transform="translate(-136.422 -988.776)">
        <path id="Path_1186" data-name="Path 1186" d="M7.035,0C9.514-.015,14.07,15.633,14.07,15.633H0S4.556.015,7.035,0Z" transform="translate(1163.677 1273)" fill="#b5901a"/>
        <path id="Path_1188" data-name="Path 1188" d="M7.035,15.632C9.514,15.647,14.07,0,14.07,0H0S4.556,15.617,7.035,15.632Z" transform="translate(1179.68 1299.956) rotate(-109)" fill="#b5901a"/>
        <path id="Path_1189" data-name="Path 1189" d="M7.035,15.632C9.514,15.647,14.07,0,14.07,0H0S4.556,15.617,7.035,15.632Z" transform="matrix(0.755, -0.656, 0.656, 0.755, 1169.652, 1306.109)" fill="#b5901a"/>
        <path id="Path_1190" data-name="Path 1190" d="M7.034,0c2.479-.015,7.035,15.632,7.035,15.632H0S4.555.015,7.034,0Z" transform="translate(1161.51 1317.906) rotate(-139)" fill="#b5901a"/>
        <rect id="Rectangle_557" data-name="Rectangle 557" width="18" height="18" transform="translate(1162.422 1287.895)" fill="#b5901a"/>
        <path id="Path_1199" data-name="Path 1199" d="M7.035,0C9.514-.015,14.07,15.632,14.07,15.632H0S4.556.015,7.035,0Z" transform="translate(1147.099 1294.867) rotate(-71)" fill="#b5901a"/>
      </g>
    </g>
  </g>
</svg>
